<svg width="30" height="30" fill="none" xmlns="http://www.w3.org/2000/svg"><path d="M3.473 23.09c0-5.765-2.986-9.723-2.986-12.5 0-2.778 1.596-8.613 14.374-8.613 12.777 0 14.652 7.848 14.652 10.903.001 14.306-26.04 20.417-26.04 10.21Z" fill="#FCD5BA"/><path d="M13.09 20.934a.833.833 0 0 1-1.178 0l-5-5a.833.833 0 0 1 0-1.178l1.178-1.178a.832.832 0 0 1 1.179 0l3.232 3.231 8.233-8.232a.832.832 0 0 1 1.178 0l1.178 1.179a.832.832 0 0 1 0 1.178l-10 10Z" fill="#F63"/><path d="M8.786 15.934a.833.833 0 0 1 0-1.178l.83-.83-.348-.349a.832.832 0 0 0-1.179 0l-1.178 1.179a.832.832 0 0 0 0 1.178l5 5a.832.832 0 0 0 1.178 0l.348-.348-4.651-4.652Z" fill="#000" fill-opacity=".1"/></svg>