<svg width="127" height="103" fill="none" xmlns="http://www.w3.org/2000/svg"><path d="M113.091 54.48H13.773c-2.083 0-3.776 1.766-3.595 3.84 2.177 24.693 25.188 44.124 53.25 44.124 28.064 0 51.074-19.431 53.251-44.124.188-2.074-1.505-3.84-3.588-3.84Z" fill="#F63"/><path d="M45.504 17.532a3.659 3.659 0 0 1-2.93-1.45C38.946 11.316 32.054 8.35 24.59 8.35c-7.464 0-14.357 2.96-17.985 7.732a3.677 3.677 0 0 1-5.153.698 3.67 3.67 0 0 1-.699-5.148C5.818 4.973 14.726 1 24.59 1s18.772 3.973 23.844 10.632a3.674 3.674 0 0 1-2.93 5.9ZM123.182 17.532a3.66 3.66 0 0 1-2.929-1.45c-3.628-4.766-10.521-7.732-17.985-7.732-7.464 0-14.357 2.96-17.985 7.732a3.677 3.677 0 0 1-5.153.698 3.67 3.67 0 0 1-.7-5.148C83.498 4.973 92.406 1 102.269 1c9.863 0 18.771 3.973 23.844 10.632a3.675 3.675 0 0 1-2.93 5.9Z" fill="#414141"/></svg>