<?xml version="1.0" encoding="utf-8"?><svg xmlns="http://www.w3.org/2000/svg" xmlns:xlink="http://www.w3.org/1999/xlink"><symbol viewBox="0 0 24 12" id="atom" xmlns="http://www.w3.org/2000/svg"><path d="M23.188.667H.812c-.469 0-.852.391-.809.854C.495 7.01 5.678 11.333 12 11.333s11.506-4.32 11.997-9.812c.04-.463-.34-.854-.809-.854z"/></symbol><symbol viewBox="0 0 24 24" id="bell-off" xmlns="http://www.w3.org/2000/svg"><path fill-rule="evenodd" clip-rule="evenodd" d="M15.278 3.384a6.5 6.5 0 00-6.474-.049.5.5 0 01-.491-.87A7.5 7.5 0 0119.499 9h-.5.5v4a.5.5 0 01-1 0V9a6.5 6.5 0 00-3.221-5.616zM6.009 5.336a.5.5 0 01.215.673A6.5 6.5 0 005.5 9v5a3.49 3.49 0 01-1.05 2.5H17a.5.5 0 010 1H2a.5.5 0 010-1A2.5 2.5 0 004.5 14V9m5.52 11.567a.5.5 0 01.683.182 1.5 1.5 0 002.595 0 .5.5 0 01.864.502 2.5 2.5 0 01-4.325 0 .5.5 0 01.182-.684z"/><path fill-rule="evenodd" clip-rule="evenodd" d="M.646.646a.5.5 0 01.708 0l22 22a.5.5 0 01-.708.708l-22-22a.5.5 0 010-.708z"/></symbol><symbol viewBox="0 0 24 24" id="calendar" xmlns="http://www.w3.org/2000/svg"><path fill-rule="evenodd" clip-rule="evenodd" d="M2.5 6A2.5 2.5 0 015 3.5h14A2.5 2.5 0 0121.5 6v14a2.5 2.5 0 01-2.5 2.5H5A2.5 2.5 0 012.5 20V6zM5 4.5A1.5 1.5 0 003.5 6v14A1.5 1.5 0 005 21.5h14a1.5 1.5 0 001.5-1.5V6A1.5 1.5 0 0019 4.5H5z"/><path fill-rule="evenodd" clip-rule="evenodd" d="M16 1.5a.5.5 0 01.5.5v4a.5.5 0 01-1 0V2a.5.5 0 01.5-.5zm-8 0a.5.5 0 01.5.5v4a.5.5 0 01-1 0V2a.5.5 0 01.5-.5zM2.5 10a.5.5 0 01.5-.5h18a.5.5 0 010 1H3a.5.5 0 01-.5-.5z"/></symbol><symbol viewBox="0 0 16 16" id="check" xmlns="http://www.w3.org/2000/svg"><path fill-rule="evenodd" clip-rule="evenodd" d="M13.57 4.431c.13.13.13.341 0 .471l-7.334 7.334a.333.333 0 01-.472 0L2.431 8.902a.333.333 0 11.472-.471L6 11.529l7.098-7.098c.13-.13.341-.13.471 0z"/></symbol><symbol viewBox="0 0 24 24" id="chevron-down" xmlns="http://www.w3.org/2000/svg"><path fill-rule="evenodd" clip-rule="evenodd" d="M5.646 8.646a.5.5 0 01.708 0L12 14.293l5.646-5.647a.5.5 0 01.708.708l-6 6a.5.5 0 01-.708 0l-6-6a.5.5 0 010-.708z"/></symbol><symbol viewBox="0 0 24 24" id="chevron-left" xmlns="http://www.w3.org/2000/svg"><path fill-rule="evenodd" clip-rule="evenodd" d="M15.354 5.646a.5.5 0 010 .708L9.707 12l5.647 5.646a.5.5 0 01-.708.708l-6-6a.5.5 0 010-.708l6-6a.5.5 0 01.708 0z"/></symbol><symbol viewBox="0 0 24 24" id="chevron-right" xmlns="http://www.w3.org/2000/svg"><path fill-rule="evenodd" clip-rule="evenodd" d="M8.646 5.646a.5.5 0 01.708 0l6 6a.5.5 0 010 .708l-6 6a.5.5 0 01-.708-.708L14.293 12 8.646 6.354a.5.5 0 010-.708z"/></symbol><symbol viewBox="0 0 24 24" id="chevrons-left" xmlns="http://www.w3.org/2000/svg"><path fill-rule="evenodd" clip-rule="evenodd" d="M11.354 6.646a.5.5 0 010 .708L6.707 12l4.647 4.646a.5.5 0 01-.708.708l-5-5a.5.5 0 010-.708l5-5a.5.5 0 01.708 0zm7 0a.5.5 0 010 .708L13.707 12l4.647 4.646a.5.5 0 01-.708.708l-5-5a.5.5 0 010-.708l5-5a.5.5 0 01.708 0z"/></symbol><symbol viewBox="0 0 24 24" id="chevrons-right" xmlns="http://www.w3.org/2000/svg"><path fill-rule="evenodd" clip-rule="evenodd" d="M12.646 6.646a.5.5 0 01.708 0l5 5a.5.5 0 010 .708l-5 5a.5.5 0 01-.708-.708L17.293 12l-4.647-4.646a.5.5 0 010-.708zm-7 0a.5.5 0 01.708 0l5 5a.5.5 0 010 .708l-5 5a.5.5 0 01-.708-.708L10.293 12 5.646 7.354a.5.5 0 010-.708z"/></symbol><symbol viewBox="0 0 24 24" id="close" xmlns="http://www.w3.org/2000/svg"><path fill-rule="evenodd" clip-rule="evenodd" d="M18.354 5.646a.5.5 0 010 .708l-12 12a.5.5 0 01-.708-.708l12-12a.5.5 0 01.708 0z"/><path fill-rule="evenodd" clip-rule="evenodd" d="M5.646 5.646a.5.5 0 01.708 0l12 12a.5.5 0 01-.708.708l-12-12a.5.5 0 010-.708z"/></symbol><symbol viewBox="0 0 30 30" id="home" xmlns="http://www.w3.org/2000/svg"><path fill-rule="evenodd" clip-rule="evenodd" d="M14.616 2.007a.625.625 0 01.768 0l11.25 8.75c.152.118.241.3.241.493V25c0 1.726-1.4 3.125-3.125 3.125H6.25A3.125 3.125 0 013.125 25V11.25c0-.193.089-.375.241-.493l11.25-8.75zM4.375 11.556V25c0 1.035.84 1.875 1.875 1.875h17.5c1.035 0 1.875-.84 1.875-1.875V11.556L15 3.292 4.375 11.556z"/><path fill-rule="evenodd" clip-rule="evenodd" d="M10.625 15c0-.345.28-.625.625-.625h7.5c.345 0 .625.28.625.625v12.5a.625.625 0 11-1.25 0V15.625h-6.25V27.5a.625.625 0 11-1.25 0V15z"/></symbol><symbol viewBox="0 0 24 24" id="info" xmlns="http://www.w3.org/2000/svg"><path fill-rule="evenodd" clip-rule="evenodd" d="M1.5 12C1.5 6.201 6.201 1.5 12 1.5S22.5 6.201 22.5 12 17.799 22.5 12 22.5 1.5 17.799 1.5 12zM12 2.5a9.5 9.5 0 100 19 9.5 9.5 0 000-19z"/><path fill-rule="evenodd" clip-rule="evenodd" d="M12 11.5a.5.5 0 01.5.5v4a.5.5 0 01-1 0v-4a.5.5 0 01.5-.5z"/><path d="M13 8a1 1 0 11-2 0 1 1 0 012 0z"/></symbol><symbol viewBox="0 0 100 10" id="logo-zasovkiy" xmlns="http://www.w3.org/2000/svg"><path fill-rule="evenodd" clip-rule="evenodd" d="M18.241.37l-7.853 7.41c-.276.26-.07.69.329.69h7.689c.125 0 .227-.092.227-.205V.51c0-.184-.25-.274-.392-.14zM8.245 2.22L.392 9.63C.25 9.764 0 9.674 0 9.49V1.735c0-.113.102-.204.227-.204h7.689c.4 0 .605.43.33.69zm41.57.2a5.237 5.237 0 00-.908-.343c-.612-.173-1.526-.346-2.758-.346-2.549 0-3.532.907-3.532 2.018 0 1.031.646 1.823 3.403 2.085 1.65.165 2.007.218 2.007.538 0 .409-.73.525-2.027.525-.79 0-1.446-.112-1.903-.232a5.199 5.199 0 01-.72-.23l-.984 1.284c.233.138.527.262.88.373.6.192 1.525.37 2.826.37 2.365 0 4.05-.56 4.05-2.09 0-1.263-1.014-1.792-3.722-2.063-1.237-.12-1.689-.218-1.689-.56 0-.338.551-.453 1.51-.453.76 0 1.402.102 1.859.204.268.058.511.129.725.205l.984-1.285zm-18.083.418l-4.055 3.88h4.055v1.566h-7.478v-.93l4.05-3.88h-3.95V1.908h7.378v.929zm10.207 5.446h-2.256l-.63-1.032h-3.777l-.63 1.032H32.39l3.91-6.375h1.729l3.91 6.375zM38.178 5.82l-1.014-1.658-1.013 1.658h2.027zm22.476-.725c0 1.863-1.54 3.365-4.899 3.365s-4.899-1.502-4.899-3.365c0-1.863 1.54-3.365 4.899-3.365s4.899 1.502 4.899 3.365zm-7.676 0c0 .907.596 1.8 2.777 1.8s2.777-.893 2.777-1.8-.596-1.8-2.777-1.8-2.777.893-2.777 1.8zm9.988-3.187h-2.255l3.81 6.375h1.73l3.81-6.375h-2.256l-2.42 4.12-2.419-4.12zm13.904.168c.352.103.656.214.909.343l-.984 1.285a5.925 5.925 0 00-.725-.205 8.551 8.551 0 00-1.858-.204c-.96 0-1.51.115-1.51.453 0 .342.451.44 1.689.56 2.707.271 3.72.8 3.72 2.063 0 1.53-1.683 2.09-4.048 2.09-1.302 0-2.226-.178-2.827-.37a4.265 4.265 0 01-.88-.373l.984-1.285c.209.085.447.165.72.231.457.12 1.113.232 1.903.232 1.297 0 2.027-.116 2.027-.525 0-.32-.357-.373-2.007-.538-2.757-.262-3.403-1.054-3.403-2.085 0-1.111.984-2.018 3.532-2.018 1.233 0 2.147.173 2.758.346zm4.25 2.201v-2.37h-2.102v6.376h2.102V6.31l.78-.578 2.653 2.552h2.569L83.35 4.66l3.721-2.751h-2.748l-3.204 2.37zm8.86 4.006h-2.1V1.909h2.102v6.375zm3.237-6.375h-2.479l3.577 3.845v2.53h2.107v-2.53l3.577-3.845h-2.48l-2.15 2.32-2.152-2.32z"/></symbol><symbol viewBox="0 0 231 165" id="map-site-lg" xmlns="http://www.w3.org/2000/svg"><path d="M162.391 53.3H63.072c-2.082 0-3.775 1.76-3.594 3.827 2.177 24.61 25.188 43.976 53.251 43.976 28.062 0 51.073-19.366 53.25-43.976.188-2.067-1.505-3.826-3.588-3.826zM94.804 16.476a3.663 3.663 0 01-2.929-1.445c-3.628-4.75-10.52-7.706-17.985-7.706-7.464 0-14.357 2.95-17.985 7.706a3.686 3.686 0 01-5.153.696 3.649 3.649 0 01-.7-5.131C55.12 3.96 64.028 0 73.89 0c9.863 0 18.771 3.96 23.844 10.596a3.654 3.654 0 01-.7 5.13 3.67 3.67 0 01-2.23.75zm77.68 0a3.664 3.664 0 01-2.929-1.445c-3.628-4.75-10.521-7.706-17.985-7.706-7.465 0-14.358 2.95-17.986 7.706a3.685 3.685 0 01-5.153.696 3.648 3.648 0 01-.698-5.131C132.798 3.96 141.707 0 151.57 0c9.862 0 18.771 3.96 23.843 10.596a3.654 3.654 0 01-.698 5.13 3.673 3.673 0 01-2.231.75zm-162.19 95.658l-1.445 3.806c-.127.314-.59.442-1.02.288-.982-.295-1.996-.823-3.058-1.599-1.055-.763-1.888-1.572-2.506-2.422a11.885 11.885 0 01-1.948-4.194 11.787 11.787 0 01-.195-4.401c.222-1.419.732-2.79 1.525-4.101a11.32 11.32 0 013.118-3.352 11.424 11.424 0 014.172-1.893c1.498-.34 2.97-.394 4.394-.153 1.444.24 2.815.755 4.131 1.565a11.55 11.55 0 013.4 3.15c.598.83 1.102 1.88 1.491 3.131.403 1.251.605 2.422.598 3.519.007.441-.309.776-.658.789l-4.071.114c-.39 0-.713-.361-.713-.876a6.154 6.154 0 00-.262-1.907c-.194-.655-.443-1.197-.752-1.625-1.001-1.378-2.331-2.215-3.998-2.482-1.652-.274-3.157.087-4.541 1.077-1.37.983-2.19 2.294-2.446 3.947-.242 1.638.135 3.164 1.136 4.542.309.428.732.829 1.283 1.204.558.381 1.102.669 1.66.849.544.174.846.622.705 1.024zm16.252-4.361c.336-.368.766-.382 1.128-.047l10.454 9.566c.37.334.383.762.047 1.123l-2.351 2.542c-.356.388-.74.402-1.129.047l-7.054-6.455-2.472 2.676 5.354 4.903c.403.368.444.809.08 1.197l-1.94 2.101c-.337.368-.787.361-1.183 0l-5.355-4.903-2.54 2.756 7.055 6.455c.497.455.537 1.043.114 1.492l-2.204 2.388c-.329.354-.765.361-1.128.027l-10.67-9.754c-.369-.334-.396-.749-.06-1.117l13.854-14.997zm22.614 31.473a5.796 5.796 0 01-.914 2.99c-1.109 1.773-2.546 2.79-4.313 3.057-1.754.275-3.669-.22-5.731-1.505l-7.263-4.508c-.336-.208-.396-.475-.195-.796l11.059-17.66c.202-.321.47-.382.8-.174l6.725 4.174c1.968 1.224 3.198 2.642 3.695 4.261.497 1.619.215 3.285-.847 4.984-.853 1.364-2.345 2.261-3.843 2.307a4.78 4.78 0 01.827 2.87zm-8.425.368c1.189.743 2.412.468 3.137-.689.712-1.137.397-2.308-.8-3.044l-3.05-1.893-2.337 3.733 3.05 1.893zm3.433-12.235l-1.975 3.151 2.52 1.565c1.014.629 2.021.408 2.626-.562s.356-1.96-.658-2.588l-2.513-1.566zm15.26 4.127c.188-.461.577-.629 1.04-.441l13.176 5.264c.463.187.631.575.443 1.037l-1.29 3.204c-.195.489-.55.636-1.041.442l-8.895-3.552-1.357 3.371 6.752 2.696c.504.201.698.602.504 1.09l-1.069 2.649c-.188.462-.604.616-1.108.415l-6.752-2.696-1.398 3.472 8.896 3.552c.631.254.873.783.638 1.358l-1.216 3.01c-.182.448-.585.609-1.048.422l-13.444-5.372c-.464-.187-.638-.562-.45-1.023l7.619-18.898zm27.115 8.067c2.298.502 4.01 1.586 5.14 3.265 1.128 1.666 1.457 3.626.954 5.887-.49 2.234-1.613 3.866-3.34 4.903-1.726 1.023-3.728 1.291-6.033.789l-2.58-.562-1.29 5.84c-.107.482-.463.716-.98.602l-3.776-.823c-.484-.107-.699-.461-.598-.943l4.387-19.887c.1-.455.484-.723.94-.623l1.902.415 1.915.422 3.359.715zm-2.432 9.961c.752.167 1.438.053 2.036-.321.61-.375.994-.937 1.162-1.686.168-.749.054-1.418-.343-2.013-.376-.609-.954-.997-1.706-1.158l-2.358-.515-1.143 5.185 2.352.508zm28.779-7.024c.471.027.766.375.739.837l-1.128 20.349c-.027.495-.329.782-.827.749l-3.856-.214c-.531-.027-.813-.348-.786-.843l.336-6.061-2.244-.12-3.568 6.007c-.315.509-.517.649-.954.622l-4.508-.247c-.483-.027-.725-.522-.463-.943l4.252-6.917c-2.082-1.392-3.21-3.726-3.056-6.476.127-2.294.954-4.1 2.492-5.405 1.539-1.317 3.494-1.899 5.845-1.772l6.739.368.987.066zm-5.26 10.122l.302-5.466-2.815-.154c-.786-.04-1.444.174-1.968.643-.524.468-.813 1.083-.86 1.866-.041.783.174 1.452.645 2.034.483.568 1.115.876 1.881.916l2.815.161zm29.111-12.282c.376-.047.591.127.638.515l2.486 20.657c.047.388-.128.602-.497.649l-4.239.508c-.377.047-.592-.127-.639-.515l-.987-8.208-8.197.977.988 8.208c.047.388-.128.602-.497.648l-4.226.502c-.39.047-.605-.127-.652-.515l-2.486-20.657c-.047-.388.128-.602.518-.649l4.225-.501c.377-.047.592.127.639.515l.907 7.539 8.196-.977-.907-7.539c-.047-.388.128-.602.497-.649l4.233-.508zm6.905 5.325c.121-1.545.511-2.957 1.156-4.228a11.438 11.438 0 012.727-3.432 11.31 11.31 0 013.984-2.261 11.24 11.24 0 014.542-.541c1.532.113 2.95.501 4.226 1.143 1.29.636 2.452 1.539 3.46 2.71a11.205 11.205 0 012.271 3.967c.658 1.986.779 3.973.369 5.94a10.97 10.97 0 01-2.64 5.224c-1.344 1.505-3.023 2.576-5.032 3.238a11.653 11.653 0 01-4.548.562c-1.539-.127-2.957-.515-4.247-1.151-1.276-.642-2.432-1.538-3.446-2.682a11.545 11.545 0 01-2.251-3.96 11.383 11.383 0 01-.571-4.529zm8.734 6.288c1.471.736 3.01.829 4.616.301 1.592-.522 2.754-1.512 3.5-2.97.739-1.465.86-2.97.329-4.556-.531-1.598-1.532-2.756-3.003-3.492-1.471-.735-3.003-.849-4.589-.327-1.592.521-2.768 1.525-3.507 2.99-.739 1.465-.853 2.99-.322 4.582.524 1.592 1.512 2.736 2.976 3.472zm27.896-29.474c.363-.207.813-.067 1.049.335l10.212 17.633c.221.375.1.863-.283 1.077l-3.386 1.94c-.376.221-.839.08-1.061-.295l-3.447-5.946c-.423 1.438-1.458 2.809-2.916 3.652-2.25 1.291-4.494 1.626-6.725 1.017-2.237-.622-4.044-2.114-5.415-4.482l-3.097-5.352c-.222-.374-.121-.869.235-1.07l3.359-1.926c.417-.241.907-.121 1.136.281l3.09 5.338c1.183 2.04 3.097 2.555 5.153 1.378 1.035-.596 1.667-1.358 1.942-2.295.275-.936.134-1.9-.43-2.876l-3.104-5.365c-.222-.375-.107-.876.262-1.084l3.426-1.96zm33.513-.649c.517.127.766.608.376.956l-3.735 3.325a1.014 1.014 0 01-.82.261l-9.695-2.502-2.318 2.06 5.362 5.974c.262.294.248.568-.034.816l-3.205 2.856c-.295.261-.571.248-.833-.046l-13.907-15.5c-.248-.281-.235-.555.054-.816l3.205-2.856c.282-.248.557-.234.813.047l5.106 5.692 1.814-1.612-.854-9.499c-.053-.575.121-.809.518-1.164l3.701-3.291c.417-.368.874-.087.921.508l1.001 11.607 12.53 3.184zm16.653-22.156c.517.128.726.509.39.991l-2.466 3.491c-.242.342-.705.482-1.149.375l-2.942-.85-4.401 6.228 1.794 2.449a1 1 0 01.027 1.21l-2.459 3.479c-.323.455-.746.435-1.069-.034l-12.086-18.275c-.269-.428-.255-.916-.013-1.258l1.834-2.595c.242-.341.725-.502 1.175-.388l21.365 5.177zm-13.41 6.369l2.62-3.713-6.779-1.973 4.159 5.686z"/></symbol><symbol viewBox="0 0 24 24" id="menu" xmlns="http://www.w3.org/2000/svg"><path fill-rule="evenodd" clip-rule="evenodd" d="M2.5 12a.5.5 0 01.5-.5h18a.5.5 0 010 1H3a.5.5 0 01-.5-.5zm0-6a.5.5 0 01.5-.5h18a.5.5 0 010 1H3a.5.5 0 01-.5-.5zm0 12a.5.5 0 01.5-.5h18a.5.5 0 010 1H3a.5.5 0 01-.5-.5z"/></symbol><symbol viewBox="0 0 24 24" id="minus" xmlns="http://www.w3.org/2000/svg"><path fill-rule="evenodd" clip-rule="evenodd" d="M4.5 12a.5.5 0 01.5-.5h14a.5.5 0 010 1H5a.5.5 0 01-.5-.5z"/></symbol><symbol viewBox="0 0 24 24" id="order" xmlns="http://www.w3.org/2000/svg"><path fill-rule="evenodd" clip-rule="evenodd" d="M11.332 1.898l-7.998 4h-.001A1.5 1.5 0 002.5 7.24v9.524a1.5 1.5 0 00.824 1.349l8 4a1.5 1.5 0 001.342 0l8-4h.002a1.5 1.5 0 00.832-1.343V7.24a1.5 1.5 0 00-.832-1.342h-.002l-7.998-4a1.502 1.502 0 00-1.335 0zm-.445-.896a2.5 2.5 0 012.226 0l8 4A2.5 2.5 0 0122.5 7.24v9.53a2.5 2.5 0 01-1.387 2.237l-8 4a2.5 2.5 0 01-2.237 0l-8-4A2.5 2.5 0 011.5 16.758V7.24a2.5 2.5 0 011.387-2.237l8-4z"/><path fill-rule="evenodd" clip-rule="evenodd" d="M1.873 5.936a.5.5 0 01.671-.223L12 10.44l9.457-4.728a.5.5 0 11.447.894l-9.68 4.84a.5.5 0 01-.447 0l-9.68-4.84a.5.5 0 01-.224-.67z"/><path fill-rule="evenodd" clip-rule="evenodd" d="M12 10.5a.5.5 0 01.5.5v11.76a.5.5 0 01-1 0V11a.5.5 0 01.5-.5zM6.553 3.276a.5.5 0 01.67-.223l10 5a.5.5 0 11-.447.894l-10-5a.5.5 0 01-.223-.67z"/></symbol><symbol viewBox="0 0 30 30" id="percent" xmlns="http://www.w3.org/2000/svg"><path fill-rule="evenodd" clip-rule="evenodd" d="M24.192 5.808a.625.625 0 010 .884l-17.5 17.5a.625.625 0 11-.884-.884l17.5-17.5a.625.625 0 01.884 0zM4.375 8.125a3.75 3.75 0 117.5 0 3.75 3.75 0 01-7.5 0zm3.75-2.5a2.5 2.5 0 100 5 2.5 2.5 0 000-5zm10 16.25a3.75 3.75 0 117.5 0 3.75 3.75 0 01-7.5 0zm3.75-2.5a2.5 2.5 0 100 5 2.5 2.5 0 000-5z"/></symbol><symbol viewBox="0 0 24 24" id="phone" xmlns="http://www.w3.org/2000/svg"><path fill-rule="evenodd" clip-rule="evenodd" d="M.53 5.628C.3 3.782 1.88 2.5 3.577 2.5h3.591a1.5 1.5 0 011.476 1.232l.606 3.335a3.5 3.5 0 01-.71 2.812l-.724.904a.467.467 0 00-.04.537c.469.766 1.314 2.06 2.08 2.826.767.767 2.06 1.612 2.826 2.081.163.1.376.088.538-.04l.904-.724a3.5 3.5 0 012.812-.71l3.335.606a1.5 1.5 0 011.232 1.476v3.347c0 1.821-1.451 3.442-3.385 3.131-3.313-.533-8.048-2.236-11.982-6.473C2.31 12.72.893 8.515.531 5.628zM3.577 3.5c-1.265 0-2.19.91-2.053 2.003.338 2.692 1.671 6.7 5.345 10.657 3.75 4.038 8.263 5.66 11.408 6.166 1.194.192 2.226-.797 2.226-2.144v-3.347a.5.5 0 00-.41-.492l-3.336-.607a2.5 2.5 0 00-2.009.508l-.904.723a1.465 1.465 0 01-1.684.113c-.764-.468-2.151-1.367-3.01-2.226-.86-.86-1.76-2.248-2.227-3.01a1.467 1.467 0 01.113-1.685l.723-.905a2.5 2.5 0 00.507-2.009L7.66 3.911a.5.5 0 00-.492-.411H3.576z"/></symbol><symbol viewBox="0 0 24 24" id="plus" xmlns="http://www.w3.org/2000/svg"><path fill-rule="evenodd" clip-rule="evenodd" d="M12 4.5a.5.5 0 01.5.5v14a.5.5 0 01-1 0V5a.5.5 0 01.5-.5z"/><path fill-rule="evenodd" clip-rule="evenodd" d="M4.5 12a.5.5 0 01.5-.5h14a.5.5 0 010 1H5a.5.5 0 01-.5-.5z"/></symbol><symbol viewBox="0 0 24 24" id="search" xmlns="http://www.w3.org/2000/svg"><path fill-rule="evenodd" clip-rule="evenodd" d="M2.5 10.5a8 8 0 1116 0 8 8 0 01-16 0zm8-7a7 7 0 100 14 7 7 0 000-14z"/><path fill-rule="evenodd" clip-rule="evenodd" d="M15.446 15.446a.5.5 0 01.707 0l5.2 5.2a.5.5 0 01-.707.707l-5.2-5.2a.5.5 0 010-.707z"/></symbol><symbol viewBox="0 0 23 20" id="shape" xmlns="http://www.w3.org/2000/svg"><path fill-rule="evenodd" clip-rule="evenodd" d="M12.205 2.256a6 6 0 118.487 8.488l-8.84 8.84a.5.5 0 01-.707 0l-8.84-8.84a6.001 6.001 0 118.487-8.488l.706.707.707-.707zm4.243-.758a5 5 0 00-3.536 1.465l-1.06 1.06a.5.5 0 01-.707 0l-1.06-1.06a5.001 5.001 0 10-7.073 7.073l8.486 8.487 8.487-8.487a5 5 0 00-3.537-8.538z"/></symbol><symbol viewBox="0 0 24 24" id="share" xmlns="http://www.w3.org/2000/svg"><path fill-rule="evenodd" clip-rule="evenodd" d="M14.5 5a3.5 3.5 0 117 0 3.5 3.5 0 01-7 0zM18 2.5a2.5 2.5 0 100 5 2.5 2.5 0 000-5zM2.5 12a3.5 3.5 0 117 0 3.5 3.5 0 01-7 0zM6 9.5a2.5 2.5 0 100 5 2.5 2.5 0 000-5zm8.5 9.5a3.5 3.5 0 117 0 3.5 3.5 0 01-7 0zm3.5-2.5a2.5 2.5 0 100 5 2.5 2.5 0 000-5z"/><path fill-rule="evenodd" clip-rule="evenodd" d="M8.158 13.258a.5.5 0 01.684-.18l6.83 3.98a.5.5 0 11-.504.864l-6.83-3.98a.5.5 0 01-.18-.684zm7.684-7a.5.5 0 01-.18.684l-6.82 3.98a.5.5 0 11-.504-.864l6.82-3.98a.5.5 0 01.684.18z"/></symbol><symbol viewBox="0 0 24 24" id="shopping-cart" xmlns="http://www.w3.org/2000/svg"><path fill-rule="evenodd" clip-rule="evenodd" d="M5.5 21a2.5 2.5 0 115 0 2.5 2.5 0 01-5 0zM8 19.5a1.5 1.5 0 100 3 1.5 1.5 0 000-3zm9.5 1.5a2.5 2.5 0 115 0 2.5 2.5 0 01-5 0zm2.5-1.5a1.5 1.5 0 100 3 1.5 1.5 0 000-3zM1 .5a.5.5 0 000 1h3.58c.758 4.291 1.523 8.564 2.17 12.87a2.5 2.5 0 002.472 2.13H19.36a2.5 2.5 0 002.451-2.01l1.44-7.196A1.5 1.5 0 0021.778 5.5H7.16a1.49 1.49 0 00-.816.24L5.492.914A.5.5 0 005 .5H1zm5.666 6.574A.5.5 0 017.16 6.5h14.62a.5.5 0 01.49.598l-1.44 7.196a1.5 1.5 0 01-1.47 1.206H9.222a1.5 1.5 0 01-1.484-1.277L6.666 7.074z"/></symbol><symbol viewBox="0 0 14 13" id="star" xmlns="http://www.w3.org/2000/svg"><path d="M6.103.817a1 1 0 011.794 0l1.221 2.475a1 1 0 00.753.548l2.732.397a1 1 0 01.555 1.705L11.18 7.87a1 1 0 00-.288.885l.467 2.721a1 1 0 01-1.451 1.054l-2.444-1.284a1 1 0 00-.93 0L4.09 12.529a1 1 0 01-1.45-1.054l.466-2.72a1 1 0 00-.288-.886L.842 5.942a1 1 0 01.555-1.705l2.732-.397a1 1 0 00.753-.548L6.103.817z"/></symbol><symbol viewBox="0 0 25 24" id="view" xmlns="http://www.w3.org/2000/svg"><path fill-rule="evenodd" clip-rule="evenodd" d="M2.066 12l.055.099a19.169 19.169 0 002.618 3.56C6.573 17.613 9.199 19.5 12.5 19.5c3.3 0 5.927-1.887 7.76-3.842A19.165 19.165 0 0022.934 12l-.055-.099a19.166 19.166 0 00-2.618-3.56c-1.835-1.953-4.461-3.84-7.761-3.84S6.573 6.388 4.74 8.343A19.17 19.17 0 002.066 12zM23.5 12l.447-.224-.001-.002-.003-.006-.01-.02-.038-.072a17.99 17.99 0 00-.71-1.198 20.177 20.177 0 00-2.195-2.82C19.073 5.613 16.2 3.5 12.5 3.5S5.927 5.613 4.01 7.658a20.178 20.178 0 00-2.76 3.753 11.762 11.762 0 00-.183.337l-.01.02-.003.006v.001s-.001.001.446.225l-.447-.224a.5.5 0 000 .448L1.5 12l-.447.224.001.002.003.006.01.02a7.682 7.682 0 00.183.337 20.182 20.182 0 002.76 3.753C5.927 18.387 8.8 20.5 12.5 20.5s6.573-2.113 8.49-4.158a20.181 20.181 0 002.76-3.753c.064-.113.112-.203.145-.265l.038-.072.01-.02.003-.006v-.001s.001-.001-.446-.225zm0 0l.447.224a.5.5 0 000-.448L23.5 12z"/><path fill-rule="evenodd" clip-rule="evenodd" d="M9 12a3.5 3.5 0 117 0 3.5 3.5 0 01-7 0zm3.5-2.5a2.5 2.5 0 100 5 2.5 2.5 0 000-5z"/></symbol><symbol viewBox="0 0 25 24" id="youtube" xmlns="http://www.w3.org/2000/svg"><g clip-path="url(#baa)"><path d="M14.397 11.8l-2.695-1.258c-.235-.11-.429.013-.429.274v2.368c0 .26.194.383.429.274l2.694-1.258c.236-.11.236-.29.001-.4zM12.473.48C6.111.48.953 5.638.953 12c0 6.362 5.158 11.52 11.52 11.52 6.363 0 11.52-5.158 11.52-11.52 0-6.362-5.157-11.52-11.52-11.52zm0 16.2c-5.896 0-6-.532-6-4.68s.104-4.68 6-4.68c5.897 0 6 .532 6 4.68s-.103 4.68-6 4.68z"/></g><defs><clipPath id="baa"><path transform="translate(.473)" d="M0 0h24v24H0z"/></clipPath></defs></symbol></svg>